<svg width="24" height="24" viewBox="0 0 24 24" fill="none" xmlns="http://www.w3.org/2000/svg">
<path fill-rule="evenodd" clip-rule="evenodd" d="M6 3.5H18C19.933 3.5 21.5 5.067 21.5 7V18C21.5 19.933 19.933 21.5 18 21.5H6C4.067 21.5 2.5 19.933 2.5 18V7C2.5 5.067 4.067 3.5 6 3.5ZM6 5C4.89543 5 4 5.89543 4 7V18C4 19.1046 4.89543 20 6 20H18C19.1046 20 20 19.1046 20 18V7C20 5.89543 19.1046 5 18 5H6Z" fill="black"/>
<path fill-rule="evenodd" clip-rule="evenodd" d="M20 10.5H4V9H20V10.5Z" fill="black"/>
<path d="M7 14C7 13.4477 7.44772 13 8 13V13C8.55228 13 9 13.4477 9 14V14C9 14.5523 8.55228 15 8 15V15C7.44772 15 7 14.5523 7 14V14Z" fill="black"/>
<path d="M11 14C11 13.4477 11.4477 13 12 13V13C12.5523 13 13 13.4477 13 14V14C13 14.5523 12.5523 15 12 15V15C11.4477 15 11 14.5523 11 14V14Z" fill="black"/>
<path d="M15 14C15 13.4477 15.4477 13 16 13V13C16.5523 13 17 13.4477 17 14V14C17 14.5523 16.5523 15 16 15V15C15.4477 15 15 14.5523 15 14V14Z" fill="black"/>
<path d="M7 17C7 16.4477 7.44772 16 8 16V16C8.55228 16 9 16.4477 9 17V17C9 17.5523 8.55228 18 8 18V18C7.44772 18 7 17.5523 7 17V17Z" fill="black"/>
<path d="M11 17C11 16.4477 11.4477 16 12 16V16C12.5523 16 13 16.4477 13 17V17C13 17.5523 12.5523 18 12 18V18C11.4477 18 11 17.5523 11 17V17Z" fill="black"/>
<path d="M15 17C15 16.4477 15.4477 16 16 16V16C16.5523 16 17 16.4477 17 17V17C17 17.5523 16.5523 18 16 18V18C15.4477 18 15 17.5523 15 17V17Z" fill="black"/>
<path fill-rule="evenodd" clip-rule="evenodd" d="M7.75 7C7.33579 7 7 6.66421 7 6.25V2.75C7 2.33579 7.33579 2 7.75 2V2C8.16421 2 8.5 2.33579 8.5 2.75V6.25C8.5 6.66421 8.16421 7 7.75 7V7Z" fill="black"/>
<path fill-rule="evenodd" clip-rule="evenodd" d="M16.25 7C15.8358 7 15.5 6.66421 15.5 6.25V2.75C15.5 2.33579 15.8358 2 16.25 2V2C16.6642 2 17 2.33579 17 2.75V6.25C17 6.66421 16.6642 7 16.25 7V7Z" fill="black"/>
</svg>
