<svg xmlns="http://www.w3.org/2000/svg" width="184" height="110" viewBox="0 0 184 110" fill="none">
<path d="M22.6324 50.2629L17.7012 67.012C17.7012 67.012 14.7204 76.7088 14.7204 79.4268C14.7204 82.1449 15.8612 88.4625 15.8612 88.4625L7.25 105.579H39.1924L42.578 92.9069C42.578 92.9069 50.6004 85.8914 51.1892 82.806H34.5924C34.5924 82.806 34.8868 69.4729 29.1092 64.6612C29.1092 64.6612 33.3044 53.6788 30.3236 49.2344C27.3428 44.79 23.2212 46.4062 22.6324 50.2629Z" fill="#FFC2A7"/>
<path d="M34.261 88.6458C34.2242 88.6458 34.1506 88.6458 34.1138 88.609C33.8562 88.5356 33.709 88.2785 33.7826 88.0213C34.1874 86.6256 34.1138 82.8791 34.1138 82.8423C34.1138 82.5852 34.3346 82.3281 34.5922 82.3281C34.8498 82.3281 35.1074 82.5485 35.1074 82.8056C35.1074 82.9525 35.181 86.7358 34.7394 88.2785C34.6658 88.4988 34.4818 88.6458 34.261 88.6458Z" fill="#D88260"/>
<path d="M36.7636 96.6184C36.4692 96.6184 36.2852 96.398 36.2852 96.1041C36.2852 95.8837 36.4324 95.7001 36.6164 95.6266C39.4868 94.7818 42.1732 92.5046 42.21 92.5046C42.394 92.3209 42.7252 92.3209 42.9092 92.5413C43.0932 92.7249 43.0932 93.0555 42.8724 93.2392L42.8356 93.2759C42.7252 93.3861 39.9652 95.6634 36.874 96.5816C36.874 96.6184 36.8004 96.6184 36.7636 96.6184Z" fill="#D88260"/>
<path d="M16.9285 92.4294C16.7445 92.4294 16.5605 92.3192 16.4869 92.1723C16.3397 91.805 16.2293 91.4009 16.1557 90.9969C15.9717 90.2256 15.7141 89.0869 15.4565 88.7196C15.3093 88.4992 15.3461 88.2054 15.5669 88.0217C15.7877 87.8748 16.0821 87.9116 16.2661 88.1319C16.2661 88.1319 16.2661 88.1319 16.2661 88.1687C16.5973 88.6462 16.8181 89.6012 17.1125 90.7398C17.1861 91.1071 17.3333 91.5846 17.3701 91.6948C17.4805 91.9519 17.3701 92.2458 17.1493 92.3559C17.0757 92.3927 17.0021 92.4294 16.9285 92.4294Z" fill="#D88260"/>
<path d="M29.1094 65.1749C28.9254 65.1749 28.7782 65.0647 28.7046 64.9178C27.9318 63.7057 26.8646 62.2732 26.4966 62.1262C26.239 62.0528 26.0918 61.7589 26.1654 61.5018C26.239 61.2447 26.5334 61.0978 26.791 61.1713C26.8278 61.1713 26.8278 61.1713 26.8646 61.208C27.7478 61.5386 29.183 63.7424 29.5878 64.4035C29.735 64.6239 29.6614 64.9545 29.4406 65.1014C29.3302 65.1381 29.2198 65.1749 29.1094 65.1749Z" fill="#D88260"/>
<path d="M64.8045 83.3208H36.6157C36.3581 83.3208 36.1005 83.1004 36.1005 82.8065C36.1005 82.5127 36.3213 82.2923 36.6157 82.2923H64.8045C67.1965 82.2923 69.1469 80.3456 69.1469 77.9581V25.8376C69.1469 23.4502 67.1965 21.5034 64.8045 21.5034H30.5069C28.1149 21.5034 26.1645 23.4502 26.1645 25.8376V46.5536C26.1645 46.8107 25.9437 47.0311 25.6493 47.0311C25.3917 47.0311 25.1709 46.8107 25.1709 46.5536V25.8376C25.1709 22.8992 27.5629 20.5117 30.5069 20.5117H64.8045C67.7485 20.5117 70.1405 22.8992 70.1405 25.8376V77.9581C70.1405 80.9333 67.7485 83.3208 64.8045 83.3208Z" fill="white"/>
<path d="M29.1816 44.6789V25.1016H39.3752C39.964 25.1016 40.4424 25.5791 40.4424 26.1667V26.7177C40.4424 27.3054 40.9208 27.7829 41.5096 27.7829C41.5096 27.7829 41.5096 27.7829 41.5464 27.7829H54.684C55.2728 27.7829 55.7512 27.3054 55.7512 26.7177C55.7512 26.13 56.2296 25.6525 56.8184 25.6525H64.988V77.6628H36.3944C36.3944 77.6628 35.4008 65.4316 31.3528 62.383C31.3528 62.383 37.02 49.0865 29.1816 44.6789Z" fill="url(#paint0_linear_5692_9345)"/>
<path d="M45.8153 26.2782C46.5267 26.2782 47.1033 25.7026 47.1033 24.9926C47.1033 24.2826 46.5267 23.707 45.8153 23.707C45.104 23.707 44.5273 24.2826 44.5273 24.9926C44.5273 25.7026 45.104 26.2782 45.8153 26.2782Z" fill="white"/>
<path d="M49.3118 25.6543C49.6776 25.6543 49.9742 25.3583 49.9742 24.9932C49.9742 24.628 49.6776 24.332 49.3118 24.332C48.946 24.332 48.6494 24.628 48.6494 24.9932C48.6494 25.3583 48.946 25.6543 49.3118 25.6543Z" fill="white"/>
<path d="M145.103 82.4367H72.6802C72.4226 82.4367 72.165 82.2163 72.165 81.9224C72.165 81.6286 72.3858 81.4082 72.6802 81.4082H145.103C146.906 81.4082 148.378 79.939 148.341 78.1392C148.341 77.1108 147.863 76.1558 147.016 75.5313L127.365 61.1698C127.255 61.0596 127.181 60.9126 127.181 60.7657V8.93908C127.181 6.73525 125.378 4.93546 123.133 4.93546H49.8642C47.6562 4.93546 45.853 6.73525 45.853 8.93908V20.399C45.853 20.6561 45.6322 20.9132 45.3746 20.9132C45.117 20.9132 44.8594 20.6928 44.8594 20.4357V8.97581C44.8594 6.22102 47.1042 3.98047 49.8642 3.98047H123.17C125.93 3.98047 128.175 6.22103 128.175 9.01254V60.5086L147.642 74.7233C149.555 76.119 149.96 78.7636 148.562 80.6736C147.752 81.7755 146.464 82.4367 145.103 82.4367Z" fill="white"/>
<path d="M127.659 61.2785H69.8834C69.6258 61.2785 69.3682 61.0581 69.3682 60.7642C69.3682 60.4704 69.589 60.25 69.8834 60.25H127.696C127.954 60.25 128.211 60.4704 128.211 60.7642C128.211 61.0581 127.954 61.2785 127.659 61.2785Z" fill="white"/>
<path d="M122.986 56.8006H70.0308C69.7732 56.8006 69.5524 56.5803 69.5524 56.2864C69.5524 56.0293 69.7732 55.8089 70.0308 55.8089H122.508V9.0878H49.018V19.96C49.018 20.2171 48.7972 20.4375 48.5028 20.4375C48.2452 20.4375 48.0244 20.2171 48.0244 19.96V8.61031C48.0244 8.35319 48.2452 8.13281 48.5028 8.13281H122.949C123.207 8.13281 123.464 8.35319 123.464 8.61031V56.3231C123.501 56.5803 123.28 56.8006 122.986 56.8006Z" fill="white"/>
<path d="M54.8686 16.137C55.8035 16.137 56.5614 15.3806 56.5614 14.4474C56.5614 13.5143 55.8035 12.7578 54.8686 12.7578C53.9337 12.7578 53.1758 13.5143 53.1758 14.4474C53.1758 15.3806 53.9337 16.137 54.8686 16.137Z" fill="url(#paint1_linear_5692_9345)"/>
<path d="M59.6166 16.137C60.5515 16.137 61.3094 15.3806 61.3094 14.4474C61.3094 13.5143 60.5515 12.7578 59.6166 12.7578C58.6817 12.7578 57.9238 13.5143 57.9238 14.4474C57.9238 15.3806 58.6817 16.137 59.6166 16.137Z" fill="url(#paint2_linear_5692_9345)"/>
<path d="M64.3998 16.137C65.3347 16.137 66.0926 15.3806 66.0926 14.4474C66.0926 13.5143 65.3347 12.7578 64.3998 12.7578C63.4649 12.7578 62.707 13.5143 62.707 14.4474C62.707 15.3806 63.4649 16.137 64.3998 16.137Z" fill="url(#paint3_linear_5692_9345)"/>
<path d="M147.752 76.4489H107.861C107.677 76.4489 107.53 76.3387 107.42 76.1918L104.512 71.1597H76.4339L73.4163 75.9714C73.3059 76.1183 73.1587 76.1918 73.0115 76.1918H69.5523C69.2947 76.1918 69.0371 75.9714 69.0371 75.6775C69.0371 75.3837 69.2579 75.1633 69.5523 75.1633H72.7171L75.7347 70.3884C75.8083 70.2414 75.9923 70.168 76.1395 70.168H104.77C104.954 70.168 105.101 70.2782 105.212 70.4251L108.119 75.4572H147.716C147.973 75.4204 148.231 75.6408 148.268 75.8979C148.304 76.155 148.084 76.4121 147.826 76.4489C147.789 76.4856 147.789 76.4856 147.752 76.4489Z" fill="white"/>
<path d="M107.861 76.1925H72.9742C72.7166 76.1925 72.459 75.9721 72.459 75.6783C72.459 75.3844 72.6798 75.1641 72.9742 75.1641H107.861C108.118 75.1641 108.376 75.3844 108.376 75.6783C108.376 75.9721 108.118 76.1925 107.861 76.1925Z" fill="white"/>
<path d="M104.254 35.4258H64.6201V56.1785H104.254V35.4258Z" fill="url(#paint4_linear_5692_9345)"/>
<path d="M77.022 35.422C82.5705 35.422 87.0684 30.9326 87.0684 25.3946C87.0684 19.8566 82.5705 15.3672 77.022 15.3672C71.4735 15.3672 66.9756 19.8566 66.9756 25.3946C66.9756 30.9326 71.4735 35.422 77.022 35.422Z" fill="#FED490"/>
<path d="M74.5933 26.2035C72.5325 26.2035 70.8765 25.7627 70.4349 24.4772C69.8461 22.7876 70.9869 20.6572 73.7837 18.0861C75.1085 16.9107 76.5069 15.8088 77.9789 14.8171C78.1997 14.6701 78.5309 14.7436 78.6781 15.0007C78.8253 15.2211 78.7517 15.5149 78.5309 15.6619C76.2493 17.1311 70.4717 21.5387 71.3917 24.1466C72.1277 26.277 80.4445 24.7343 86.0749 22.8978C86.3325 22.8243 86.6269 22.9712 86.7005 23.2283C86.7741 23.4854 86.6269 23.7793 86.3693 23.8528C84.7501 24.367 78.7885 26.2035 74.5933 26.2035Z" fill="white"/>
<path d="M81.7323 34.5792C81.6219 34.5792 81.5483 34.5425 81.4379 34.5057C81.2171 34.3588 81.1435 34.0282 81.3275 33.8079C81.3275 33.8079 82.2107 32.5223 81.9163 31.4204C81.6955 30.8327 81.2171 30.3552 80.6283 30.1715C78.3099 29.1798 72.9739 32.155 71.0971 33.4038C70.8763 33.5508 70.5451 33.4773 70.3979 33.2569C70.2507 33.0365 70.3243 32.7427 70.5451 32.5958C70.8395 32.4121 77.7579 27.8575 81.0331 29.29C82.0267 29.7308 82.6523 30.3552 82.8731 31.2C83.3147 32.7427 82.2107 34.3588 82.1739 34.4323C82.0635 34.5057 81.9163 34.5792 81.7323 34.5792Z" fill="white"/>
<path d="M96.4527 56.581C96.1951 56.581 95.9743 56.3606 95.9375 56.1035V35.7916C95.9375 35.5345 96.1583 35.2773 96.4527 35.2773C96.7471 35.2773 96.9679 35.4977 96.9679 35.7916V56.1035C96.9311 56.3606 96.7103 56.581 96.4527 56.581Z" fill="white"/>
<path d="M43.6078 52.8701C39.0814 52.8701 35.4014 49.197 35.4014 44.6792C35.4014 40.1613 39.0814 36.4883 43.6078 36.4883C48.1342 36.4883 51.8142 40.1613 51.8142 44.6792C51.7774 49.197 48.1342 52.8701 43.6078 52.8701ZM43.6078 37.48C39.6334 37.48 36.395 40.6755 36.395 44.6424C36.395 48.6093 39.5966 51.8416 43.571 51.8416C47.5454 51.8416 50.7838 48.6461 50.7838 44.6792C50.7838 40.7123 47.5822 37.5167 43.6078 37.48Z" fill="white"/>
<path d="M64.6209 56.5077H42.6881C42.4305 56.5077 42.1729 56.2873 42.1729 56.0302C42.1729 55.8832 42.2465 55.7363 42.3937 55.6261L64.3265 39.428C64.5473 39.2811 64.8417 39.3178 65.0257 39.5382C65.0993 39.6116 65.1361 39.7218 65.1361 39.832V56.0302C65.1361 56.2505 64.9153 56.4709 64.6209 56.5077ZM44.1969 55.5159H64.1057V40.787L44.1969 55.5159Z" fill="white"/>
<path d="M112.608 54.8549C118.909 54.8549 124.016 49.757 124.016 43.4685C124.016 37.1799 118.909 32.082 112.608 32.082C106.308 32.082 101.2 37.1799 101.2 43.4685C101.2 49.757 106.308 54.8549 112.608 54.8549Z" fill="url(#paint5_linear_5692_9345)"/>
<path d="M96.6734 35.5708C96.4158 35.5708 96.1582 35.3504 96.1582 35.0933C96.1582 35.0565 96.1582 34.9831 96.195 34.9463L102.451 12.9081C102.525 12.651 102.782 12.504 103.077 12.5775C103.15 12.6142 103.261 12.651 103.297 12.7244L118.496 29.6939C118.68 29.9143 118.643 30.2081 118.459 30.3918C118.385 30.4285 118.312 30.502 118.238 30.502L96.7838 35.5708C96.747 35.5708 96.7102 35.5708 96.6734 35.5708ZM103.15 14.0467L97.3726 34.3954L117.208 29.7306L103.15 14.0467Z" fill="white"/>
<path d="M150.144 61.6494C149.445 60.878 148.709 60.1067 148.046 59.2986C146.133 57.1682 144.403 54.8542 142.858 52.43C141.496 50.116 140.245 47.7285 139.141 45.3043C137.227 41.117 135.461 36.4155 135.498 31.714C138.221 32.265 141.68 36.0482 141.68 36.0482C141.68 36.0482 141.422 29.4 140.613 25.6903C138.957 17.8299 145.654 14.2671 148.414 17.9769C148.414 17.9769 150.733 27.6002 151.984 31.4202C153.235 35.2402 152.426 47.3979 150.88 55.4052C150.475 57.4621 150.254 59.5557 150.144 61.6494Z" fill="#D88260"/>
<path d="M129.02 59.0428C134.32 59.8142 137.521 53.166 133.436 49.6766L133.326 49.5664C129.536 46.4443 123.096 43.3589 123.096 43.3589C115.625 45.9301 108.78 39.5023 113.528 36.5638C113.528 36.5638 122.065 35.3884 126.592 35.2048C129.388 35.0946 134.982 39.0615 134.982 39.0615C134.982 39.0615 132.001 33.1112 129.756 30.0258C125.009 23.5612 129.609 17.5375 133.694 19.778C133.694 19.778 139.766 27.6016 142.489 30.5768C145.212 33.5519 148.488 45.2322 151.358 52.9089C154.707 61.8344 172.408 102.715 173.585 105.617L133.584 105.397C133.584 105.397 130.014 87.1784 125.672 81.6321C121.329 76.0858 111.614 67.6745 111.136 62.569C110.179 58.0144 111.614 51.256 118.312 55.4065C121.513 57.5002 125.819 58.5286 129.02 59.0428Z" fill="#FFC2A7"/>
<path d="M145.212 51.1445C144.992 51.1445 144.808 50.9976 144.734 50.7772C144.219 49.161 143.483 47.6551 142.526 46.2593C141.054 44.2024 134.724 39.4642 134.651 39.4275C134.43 39.2806 134.393 38.95 134.54 38.7296C134.688 38.5092 135.019 38.4725 135.24 38.6194C135.497 38.8031 141.79 43.4678 143.336 45.6717C144.329 47.1409 145.139 48.757 145.691 50.4833C145.764 50.7404 145.617 51.0343 145.36 51.1077C145.286 51.1445 145.249 51.1445 145.212 51.1445Z" fill="#D88260"/>
<path d="M135.976 86.5904H135.939C132.259 86.2598 128.947 84.2029 126.997 82.9908C126.518 82.6602 126.003 82.3664 125.488 82.1092C125.23 81.9991 125.12 81.7052 125.23 81.4481C125.341 81.191 125.635 81.0808 125.893 81.191C126.445 81.4848 126.997 81.7787 127.549 82.146C129.573 83.3948 132.59 85.3048 136.049 85.5986C136.307 85.6354 136.528 85.8925 136.491 86.1496C136.417 86.4067 136.233 86.5904 135.976 86.5904Z" fill="#D88260"/>
<path d="M158.35 77.2585C158.276 77.2585 158.202 77.2585 158.129 77.2218C157.871 77.1116 157.798 76.8177 157.908 76.5606C159.343 73.6589 158.239 72.153 158.166 72.1162C157.982 71.8959 158.055 71.602 158.239 71.4184C158.46 71.2347 158.754 71.2714 158.938 71.4918C159.012 71.5653 160.521 73.512 158.791 77.0014C158.718 77.1483 158.534 77.2585 158.35 77.2585Z" fill="#D88260"/>
<path d="M179.804 106.056H4.19489C3.93729 106.056 3.67969 105.835 3.67969 105.542C3.67969 105.248 3.90049 105.027 4.19489 105.027H179.841C180.099 105.027 180.356 105.248 180.356 105.542C180.356 105.835 180.099 106.056 179.804 106.056Z" fill="white"/>
<defs>
<linearGradient id="paint0_linear_5692_9345" x1="67.6538" y1="0.715416" x2="36.5083" y2="77.7434" gradientUnits="userSpaceOnUse">
<stop stop-color="#F38374"/>
<stop offset="1" stop-color="#C64234"/>
</linearGradient>
<linearGradient id="paint1_linear_5692_9345" x1="51.5954" y1="9.0909" x2="56.902" y2="17.7646" gradientUnits="userSpaceOnUse">
<stop stop-color="#F38374"/>
<stop offset="1" stop-color="#C64234"/>
</linearGradient>
<linearGradient id="paint2_linear_5692_9345" x1="56.3518" y1="9.09252" x2="61.6584" y2="17.7662" gradientUnits="userSpaceOnUse">
<stop stop-color="#F38374"/>
<stop offset="1" stop-color="#C64234"/>
</linearGradient>
<linearGradient id="paint3_linear_5692_9345" x1="61.1092" y1="9.09252" x2="66.4159" y2="17.7662" gradientUnits="userSpaceOnUse">
<stop stop-color="#F38374"/>
<stop offset="1" stop-color="#C64234"/>
</linearGradient>
<linearGradient id="paint4_linear_5692_9345" x1="97.7511" y1="8.24159" x2="78.6354" y2="62.449" gradientUnits="userSpaceOnUse">
<stop stop-color="#0A6B5B"/>
<stop offset="0.78" stop-color="#005146"/>
<stop offset="0.91" stop-color="#005045"/>
</linearGradient>
<linearGradient id="paint5_linear_5692_9345" x1="121.731" y1="12.1337" x2="108.507" y2="57.6414" gradientUnits="userSpaceOnUse">
<stop stop-color="#F38374"/>
<stop offset="1" stop-color="#C64234"/>
</linearGradient>
</defs>
</svg>